<?xml version="1.0" encoding="iso-8859-1"?>
<!-- Generator: Adobe Illustrator 16.0.0, SVG Export Plug-In . SVG Version: 6.00 Build 0)  -->
<!DOCTYPE svg PUBLIC "-//W3C//DTD SVG 1.1//EN" "http://www.w3.org/Graphics/SVG/1.1/DTD/svg11.dtd">
<svg version="1.1" id="Layer_1" xmlns="http://www.w3.org/2000/svg" xmlns:xlink="http://www.w3.org/1999/xlink" x="0px" y="0px"
	 width="558.666px" height="107.333px" viewBox="0 0 558.666 107.333" style="enable-background:new 0 0 558.666 107.333;"
	 xml:space="preserve">
<g>
	<path style="fill:#333333;" d="M447.675,51.714h21.19v4.004h-21.19v21.094h-4.003V55.718h-21.095v-4.004h21.095V30.522h4.003
		V51.714z M302.666,51.714h21.191v4.004h-21.191v21.094h-4.002V55.718H277.57v-4.004h21.095V30.522h4.002V51.714z"/>
	<path style="fill:#FFFFFF;" d="M513.699,12.915l36.017,20.373v40.758l-36.017,20.371l-36.014-20.371V33.288L513.699,12.915z"/>
	<path style="fill:#92D4F5;" d="M543.285,72.633l-28.39,16.077V76.207l17.697-9.744L543.285,72.633z M545.231,70.88V37.283
		l-10.383,5.994v21.609L545.231,70.88z M484.005,72.633l28.391,16.063V76.193l-17.696-9.73L484.005,72.633z M482.062,70.88V37.283
		l10.383,5.994v21.609L482.062,70.88z M483.271,35.109l29.125-16.472v12.096l-18.66,10.261l-0.147,0.082L483.271,35.109
		L483.271,35.109z M544.009,35.109l-29.113-16.472v12.096l18.648,10.274l0.147,0.082L544.009,35.109L544.009,35.109z"/>
	<path style="fill:#1F79BE;" d="M512.396,73.353l-17.449-9.607V44.731l17.449,10.07V73.353z M514.896,73.353l17.451-9.595V44.731
		l-17.451,10.07V73.353z M496.114,42.529l17.533-9.635l17.518,9.635l-17.518,10.112L496.114,42.529z"/>
	<path style="fill:#4DBA87;" d="M381.303,19.65l-9.07,15.712l-9.073-15.712H332.95l39.279,68.034l39.281-68.034H381.303
		L381.303,19.65z"/>
	<path style="fill:#455567;" d="M381.303,19.65l-9.07,15.712l-9.073-15.712h-14.496l23.566,40.82l23.568-40.82H381.303z"/>
</g>
<g>
	<path style="fill:#010101;" d="M9.139,12.619v82.982h24.853c8.636,0,14.314-0.509,17.104-1.5s4.813-2.834,6.071-5.535
		c1.041-2.176,1.654-5.323,1.856-9.392c-2.683-6.448-3.236-13.7-1.428-20.639c-0.323-0.781-0.721-1.484-1.143-2.106
		c-1.77-2.631-5.106-4.513-10.07-5.642c4.455-1.025,7.431-2.478,8.928-4.393c1.53-1.914,2.286-5.323,2.286-10.176
		c0-7.176-1.073-12.354-3.215-15.568c-2.144-3.246-4.96-5.403-8.462-6.462c-3.468-1.06-8.587-1.571-15.354-1.571H9.139V12.619z
		 M184.994,12.619v82.982h21.211V12.619H184.994z M126.542,18.51c1.177,0.815,2.12,1.558,2.855,2.25
		c1.388,1.302,2.191,2.441,2.356,3.821s-0.673,2.625-1.356,3.142c-0.201,0.153-0.209,0.119-0.395,0.215l-7.604,13.14v33.458
		c0,6.766,0.198,11.08,0.571,12.926c0.374,1.812,1.327,3.422,2.856,4.856c1.529,1.401,3.279,2.304,5.284,2.714
		c2.006,0.375,5.377,0.57,10.069,0.57h8.32V84.64c-3.365,0-5.312-0.272-5.785-0.787c-0.443-0.513-0.646-3.022-0.646-7.5V39.969
		h5.535V29.222h-5.535V18.51H126.542z M154.215,18.51v10.712h-4.428V39.97h4.428v34.563c0,6.766,0.197,11.08,0.57,12.926
		c0.375,1.812,1.327,3.42,2.856,4.856c1.529,1.401,3.314,2.304,5.32,2.714c2.006,0.377,5.342,0.571,10.033,0.571h8.317V84.638
		c-3.362,0-5.307-0.272-5.783-0.786c-0.442-0.512-0.645-3.021-0.645-7.499V39.968h5.57V29.221h-5.57V18.509L154.215,18.51z
		 M235.732,26.33c-4.727,0-8.93,0.94-12.567,2.786c-3.638,1.811-6.222,4.44-7.82,7.891c-1.598,3.417-2.428,8.086-2.428,14.033
		v19.853c0,5.059,0.356,8.902,1.071,11.568c0.716,2.633,2.021,5.063,3.857,7.285c1.869,2.187,4.449,3.914,7.783,5.176
		c3.332,1.265,7.182,1.893,11.533,1.893c4.487,0,8.219-0.628,11.176-1.893c2.992-1.297,5.453-3.221,7.391-5.784
		c1.938-2.563,3.168-4.958,3.681-7.214c0.545-2.256,0.784-5.508,0.784-9.711v-5.035h-19.53v8.998c0,3.383-0.24,5.658-0.787,6.855
		c-0.508,1.161-1.576,1.75-3.142,1.75c-1.26,0-2.094-0.434-2.534-1.322c-0.443-0.887-0.681-2.887-0.681-5.963V62.786h26.674v-9.035
		c0-6.596-0.756-11.696-2.284-15.318c-1.496-3.657-4.117-6.561-7.894-8.748C246.275,27.465,241.514,26.33,235.732,26.33
		L235.732,26.33z M30.6,26.793c2.209,0.034,3.714,0.191,4.462,0.464c0.783,0.273,1.38,0.94,1.857,2
		c0.477,1.025,0.714,2.831,0.714,5.427c0,4.921-0.279,7.939-0.857,8.998c-0.578,1.025-1.927,1.536-4.033,1.536
		c-0.511,0-1.226,0.001-2.143,0.036V26.793z M236.697,38.399c1.156,0,1.912,0.51,2.285,1.535s0.572,3.3,0.572,6.821v4.963h-6.035
		v-4.963c0-3.828,0.197-6.18,0.535-7.034C234.395,38.833,235.268,38.399,236.697,38.399L236.697,38.399z M30.6,58.18
		c3.195,0.104,5.178,0.535,5.927,1.285c0.749,0.752,1.107,2.91,1.107,6.461v7.714c0,3.351-0.4,5.467-1.25,6.319
		c-0.815,0.855-2.758,1.326-5.784,1.429V58.18z"/>
	<g transform="translate(-246.283 -267.648) translate(8.404 62.45)">
		
			<linearGradient id="SVGID_1_" gradientUnits="userSpaceOnUse" x1="1002.1361" y1="-835.51" x2="953.5533" y2="-762.6353" gradientTransform="matrix(1 0 0 -1 -661.8945 -567.8374)">
			<stop  offset="0" style="stop-color:#010101"/>
			<stop  offset="1" style="stop-color:#FFFFFF"/>
		</linearGradient>
		<path style="fill:url(#SVGID_1_);" d="M352.628,219.056c-12.272-7.085-10.769-1.559-10.769-1.559l-13.89,24.058
			c-10.895-0.411-21.656,5.088-27.481,15.179c-8.381,14.515-3.377,33.097,11.141,41.479c14.516,8.38,33.079,3.405,41.46-11.11
			c5.826-10.091,5.208-22.16-0.597-31.39l13.891-24.058c0,0,5.538-1.461-6.732-8.546L352.628,219.056z"/>
		<path style="fill:#FFFFFF;" d="M329.307,243.824c-17.561-1.98-33.758,15.285-30.208,32.637
			c2.27,17.767,23.479,29.004,39.455,20.96c15.55-6.609,21.366-28.105,11.249-41.67c4.761-8.716,10.979-17.851,14.818-26.387
			c-6.159-4.689-13.055-8.925-20.281-11.534C344.339,217.83,334.124,235.418,329.307,243.824z"/>
		<g transform="translate(-80 20)">
			<g>
				<defs>
					<circle id="SVGID_2_" cx="406.789" cy="251.919" r="26.317"/>
				</defs>
				<clipPath id="SVGID_3_">
					<use xlink:href="#SVGID_2_"  style="overflow:visible;"/>
				</clipPath>
				
					<linearGradient id="SVGID_4_" gradientUnits="userSpaceOnUse" x1="1229.0824" y1="-857.7327" x2="1229.0824" y2="-886.074" gradientTransform="matrix(1 0 0 -1 -821.8945 -607.8374)">
					<stop  offset="0" style="stop-color:#30BA9D"/>
					<stop  offset="1" style="stop-color:#006F5B"/>
				</linearGradient>
				<path style="clip-path:url(#SVGID_3_);fill:url(#SVGID_4_);" d="M408.817,243.031c-14.335,0-19.213,5.248-27.458,2.107
					c-8.245-3.139-6.755-2.514-9.358-3.622v38.354h70.377v-29.784c0,0-3.579,1.707-9.386-0.233
					C427.185,247.907,420.549,243.031,408.817,243.031L408.817,243.031z"/>
			</g>
			<circle style="fill:#30BA9D;" cx="419.904" cy="235.023" r="4.048"/>
			<circle style="fill:#30BA9D;" cx="419.596" cy="244.349" r="2.023"/>
			<circle style="fill:#30BA9D;" cx="408.372" cy="241.838" r="6.073"/>
			<circle style="fill:#30BA9D;" cx="410.175" cy="231.149" r="2.025"/>
			<circle style="fill:#30BA9D;" cx="396.668" cy="245.848" r="4.048"/>
		</g>
		<g transform="translate(51.804 -74.542)" style="opacity:0.75;">
			
				<radialGradient id="SVGID_5_" cx="689.5772" cy="-559.9197" r="26.3148" gradientTransform="matrix(1.538 0 0 -1.385 -795.8981 -439.0687)" gradientUnits="userSpaceOnUse">
				<stop  offset="0" style="stop-color:#FFFFFF"/>
				<stop  offset="1" style="stop-color:#FFFFFF;stop-opacity:0"/>
			</radialGradient>
			<circle style="fill:url(#SVGID_5_);" cx="274.985" cy="346.587" r="26.316"/>
			
				<radialGradient id="SVGID_6_" cx="937.7149" cy="-965.9573" r="26.3164" gradientTransform="matrix(0.769 0 0 -0.769 -456.3685 -406.3892)" gradientUnits="userSpaceOnUse">
				<stop  offset="0" style="stop-color:#FFFFFF"/>
				<stop  offset="1" style="stop-color:#FFFFFF;stop-opacity:0"/>
			</radialGradient>
			<circle style="fill:url(#SVGID_6_);" cx="274.985" cy="346.587" r="26.316"/>
		</g>
	</g>
</g>
</svg>
